<svg xmlns="http://www.w3.org/2000/svg" viewBox="0 0 32 32" id="pin"><path fill="#f2696a" d="M19.369 21.695a6.505 6.505 0 0 0 .192-7.119l2.499-2.499a3.558 3.558 0 0 0 2.561-.068c.63-.265.746-1.12.263-1.603L21.58 7.103c-.484-.484-1.34-.367-1.605.265a3.56 3.56 0 0 0-.053 2.604l-2.483 2.483a6.505 6.505 0 0 0-7.119.192c-.501.349-.542 1.084-.11 1.516l7.643 7.643c.432.431 1.166.39 1.516-.111z"></path><path fill="#e2e2e2" d="m6.264 25.75 6.718-8.838 2.121 2.121z"></path><path fill="#1a4875" d="m25.236 10.052-3.303-3.303a1.523 1.523 0 0 0-1.375-.416c-.479.094-.86.401-1.045.841a4.035 4.035 0 0 0-.162 2.661l-1.995 1.995a6.983 6.983 0 0 0-7.323.407 1.455 1.455 0 0 0-.616 1.07c-.04.45.12.891.438 1.209l2.454 2.454-6.444 8.479a.501.501 0 0 0 .398.802.505.505 0 0 0 .303-.102l8.479-6.444 2.454 2.454a1.514 1.514 0 0 0 1.209.438 1.454 1.454 0 0 0 1.07-.616 6.985 6.985 0 0 0 .407-7.323l2.014-2.014a4.026 4.026 0 0 0 2.615-.174c.439-.184.745-.564.839-1.043a1.524 1.524 0 0 0-.417-1.375zM8.881 23.133l4.143-5.451 1.308 1.308-5.451 4.143zm15.546-11.585a3.049 3.049 0 0 1-2.201.058.497.497 0 0 0-.52.118l-2.499 2.499a.5.5 0 0 0-.072.616 5.986 5.986 0 0 1-.177 6.571.456.456 0 0 1-.338.191.516.516 0 0 1-.414-.149l-2.71-2.71c-.015-.02-.022-.044-.04-.062l-2.121-2.121c-.018-.018-.042-.025-.062-.04l-2.71-2.71a.518.518 0 0 1-.149-.414.455.455 0 0 1 .191-.338 5.967 5.967 0 0 1 3.417-1.073c1.09 0 2.184.298 3.153.896a.501.501 0 0 0 .616-.072l2.483-2.482a.5.5 0 0 0 .116-.526 3.046 3.046 0 0 1 .044-2.238.42.42 0 0 1 .316-.247.53.53 0 0 1 .475.142l3.303 3.303a.534.534 0 0 1 .143.475.413.413 0 0 1-.244.313z"></path></svg>